<?xml version="1.0" encoding="iso-8859-1"?>
<!-- Generator: Adobe Illustrator 19.1.0, SVG Export Plug-In . SVG Version: 6.00 Build 0)  -->
<svg version="1.1" id="Capa_1" xmlns="http://www.w3.org/2000/svg" xmlns:xlink="http://www.w3.org/1999/xlink" x="0px" y="0px"
	 viewBox="0 0 420.316 420.316" style="enable-background:new 0 0 420.316 420.316;" xml:space="preserve">
<g>
	<g>
		<path style="fill:#455465;" d="M331.109,288.907l-45.115-10.939c-6.856-1.663-12.47-6.809-14.307-13.621
			c-2.988-11.078-2.305-23.457-2.305-27.538H150.935c0,4.097,0.619,16.558-2.463,27.67c-1.875,6.763-7.459,11.866-14.279,13.52
			l-44.986,10.908c-27.576,8.823-50.138,39.733-50.138,68.687v42.982c0,10.903,8.838,19.741,19.741,19.741h302.695
			c10.903,0,19.741-8.838,19.741-19.741v-42.982C381.247,328.639,358.685,297.73,331.109,288.907z"/>
	</g>
	<g>
		<path style="fill:#FFB422;" d="M289.122,71.349c-7.677-30.745-29.611-48.651-39.482-52.843c-22.209-9.433-56.755-9.433-78.964,0
			c-9.87,4.193-31.805,22.098-39.482,52.843s78.964,5.59,78.964,5.59S296.799,102.094,289.122,71.349z"/>
	</g>
	<g>
		<path style="fill:#FFBE1E;" d="M232.125,7.07l-17.516-6.295c-2.877-1.034-6.025-1.034-8.902,0L188.192,7.07
			c-2.613,0.939-4.355,3.416-4.355,6.193v117.52h52.643V13.263C236.48,10.487,234.737,8.009,232.125,7.07z"/>
	</g>
	<g>
		<ellipse style="fill:#FC9B28;" cx="210.158" cy="120.912" rx="165.331" ry="55.933"/>
	</g>
	<g>
		<path style="fill:#6E6E79;" d="M119.702,117.461c-1.582,9.309-1.668,20.502-1.668,33.803c0,52.696,30.343,118.446,92.124,118.446
			s92.124-65.75,92.124-118.446c0-13.302-0.086-24.494-1.668-33.803c-24.784-8.127-56.221-13-90.457-13
			S144.486,109.334,119.702,117.461z"/>
	</g>
	<g>
		<path style="fill:#29394A;" d="M119.702,117.461c-1.582,9.309-1.668,20.502-1.668,33.803c0,52.696,30.343,118.446,92.124,118.446
			s92.124-65.75,92.124-118.446c0-13.302-0.086-24.494-1.668-33.803c-24.784-8.127-56.221-13-90.457-13
			S144.486,109.334,119.702,117.461z"/>
	</g>
	<g>
		<path style="fill:#E4EBF0;" d="M210.158,114.332c28.852,0,57.109,3.668,80.485,10.39c-0.831,22.376-7.055,69.787-43.03,95.55
			c-9.883-9.809-23.322-15.461-37.455-15.461c-14.115,0-27.54,5.64-37.419,15.425c-16.316-11.881-41.593-39.288-43.105-95.504
			C153.018,118.004,181.291,114.332,210.158,114.332"/>
	</g>
	<g>
		<path style="fill:#7C828D;" d="M210.158,114.332c28.852,0,57.109,3.668,80.485,10.39c-0.831,22.376-7.055,69.787-43.03,95.55
			c-9.883-9.809-23.322-15.461-37.455-15.461c-14.115,0-27.54,5.64-37.419,15.425c-16.316-11.881-41.593-39.288-43.105-95.504
			C153.018,118.004,181.291,114.332,210.158,114.332 M210.158,104.461c-34.235,0-65.673,4.873-90.457,13
			c-0.663,73.559,37.007,105.407,54.934,115.787c7.829-11.214,20.809-18.566,35.523-18.566c14.715,0,27.696,7.353,35.525,18.569
			c17.921-10.374,55.585-42.211,54.937-115.744c-0.002-0.014-0.003-0.031-0.006-0.045
			C275.831,109.334,244.394,104.461,210.158,104.461L210.158,104.461z"/>
	</g>
	<g>
		<rect x="39.07" y="368.394" style="fill:#FFBE1E;" width="342.177" height="27.69"/>
	</g>
	<g>
		<path style="fill:#29394A;" d="M331.109,288.907l-28.826-6.99c0,67.784,33.862,86.476,33.862,86.476v-77.606
			C334.487,290.082,332.808,289.451,331.109,288.907z"/>
	</g>
	<g>
		<path style="fill:#29394A;" d="M89.208,288.907l28.826-6.99c0,67.784-33.862,86.476-33.862,86.476v-77.606
			C85.829,290.082,87.509,289.451,89.208,288.907z"/>
	</g>
	<g>
		<rect x="230.763" y="248.905" style="fill:#D0D7DC;" width="24.361" height="18.193"/>
	</g>
	<g>
		<circle style="fill:#7C828D;" cx="210.158" cy="258.002" r="32.785"/>
	</g>
	<g>
		<circle style="fill:#D0D7DC;" cx="210.158" cy="258.002" r="20.838"/>
	</g>
	<g>
		<path style="fill:#7C828D;" d="M308.349,283.388l22.759,5.518c2.007,0.642,3.978,1.434,5.925,2.301
			c-2.075-43.654-49.959-46.21-77.276-46.359c-2.561-0.014-4.633,2.047-4.633,4.609v17.135c0,2.529,2.072,4.565,4.601,4.599
			C291.682,271.62,303.834,276.591,308.349,283.388z"/>
	</g>
	<g>
		<circle style="fill:#29394A;" cx="210.158" cy="350.401" r="6.58"/>
	</g>
	<g>
		<circle style="fill:#29394A;" cx="210.158" cy="317.499" r="6.58"/>
	</g>
	<g>
		<circle style="fill:#29394A;" cx="210.158" cy="383.302" r="6.58"/>
	</g>
	<g>
		<path style="fill:#D0D7DC;" d="M129.634,124.733c1.511,56.215,26.789,83.623,43.104,95.504
			c9.879-9.786,23.305-15.425,37.42-15.425v-90.479C181.291,114.332,153.018,118.004,129.634,124.733z"/>
	</g>
</g>
<g>
</g>
<g>
</g>
<g>
</g>
<g>
</g>
<g>
</g>
<g>
</g>
<g>
</g>
<g>
</g>
<g>
</g>
<g>
</g>
<g>
</g>
<g>
</g>
<g>
</g>
<g>
</g>
<g>
</g>
</svg>
