<?xml version="1.0" encoding="iso-8859-1"?>
<!-- Generator: Adobe Illustrator 19.1.0, SVG Export Plug-In . SVG Version: 6.00 Build 0)  -->
<svg version="1.1" id="Capa_1" xmlns="http://www.w3.org/2000/svg" xmlns:xlink="http://www.w3.org/1999/xlink" x="0px" y="0px"
	 viewBox="0 0 421.14 421.14" style="enable-background:new 0 0 421.14 421.14;" xml:space="preserve">
<g>
	<g>
		<path style="fill:#FFEFE4;" d="M289.534,69.466c-7.677-36.192-29.611-60.868-39.482-65.803
			c-22.209-11.104-29.611,6.58-39.482,6.58c-9.87,0-17.273-17.685-39.482-6.58c-9.87,4.935-31.805,29.611-39.482,65.803
			s78.964,6.58,78.964,6.58S297.211,105.658,289.534,69.466z"/>
	</g>
	<g>
		<path style="fill:#FFD7A3;" d="M138.277,281.887c14.716-9.475,13.07-37.675,13.07-44.255h118.446c0,6.58-1.825,34.78,12.89,44.255
			l-72.113,80.771L138.277,281.887z"/>
	</g>
	<g>
		<path style="fill:#FDC88E;" d="M256.632,310.016l26.051-28.129c-14.716-9.474-12.89-37.675-12.89-44.255H151.347
			C159.845,262.065,216.054,303.984,256.632,310.016z"/>
	</g>
	<g>
		<path style="fill:#FFE1B2;" d="M302.695,152.088c0,52.696-30.343,118.446-92.124,118.446s-92.124-65.75-92.124-118.446
			s41.246-72.384,92.124-72.384S302.695,99.392,302.695,152.088z"/>
	</g>
	<g>
		<path style="fill:#545465;" d="M217.151,92.124c-10.282,2.879-105.285,19.741-105.285,19.741l5.476,10.952l1.104,28.53v19.741
			l13.161,7.321c0,0,0.411-23.361,6.58-40.223c29.715-3.957,130.312-18.447,144.767-32.902
			C300.227,88.012,227.432,89.246,217.151,92.124z"/>
	</g>
	<g>
		<path style="fill:#FFE1B2;" d="M121.521,163.604c-9.864-2.468-16.326,2.805-16.326,13.161c0,13.709,13.265,47.296,27.21,26.321
			S121.521,163.604,121.521,163.604z"/>
	</g>
	<g>
		<path style="fill:#FFE1B2;" d="M297.944,163.604c10.767-2.468,17.821,2.805,17.821,13.161c0,13.709-14.479,47.296-29.701,26.321
			S297.944,163.604,297.944,163.604z"/>
	</g>
	<g>
		<path style="fill:#E3A274;" d="M361.918,421.14c10.903,0,19.741-8.838,19.741-19.741v-42.981
			c0-28.954-22.562-59.864-50.138-68.687l-41.168-13.173c-22.149,16.936-53.802,40.039-79.782,40.039s-57.633-23.103-79.782-40.039
			L89.62,289.731c-27.576,8.823-50.138,39.733-50.138,68.687v42.981c0,10.903,8.838,19.741,19.741,19.741H361.918z"/>
	</g>
	<g>
		<path style="fill:#914F38;" d="M223.731,336.337c0,3.619-2.961,6.58-6.58,6.58H203.99c-3.619,0-6.58-2.961-6.58-6.58v-13.161
			c0-3.619,2.961-6.58,6.58-6.58h13.161c3.619,0,6.58,2.961,6.58,6.58V336.337z"/>
	</g>
	<g>
		<path style="fill:#D0D7DC;" d="M217.151,375.078c0,3.634-2.946,19.741-6.58,19.741c-3.634,0-6.58-16.107-6.58-19.741
			s2.946-6.58,6.58-6.58C214.204,368.498,217.151,371.444,217.151,375.078z"/>
	</g>
	<g>
		<path style="fill:#D18F5D;" d="M210.57,316.596l-27.456,27.456c-2.859,2.859-7.596,2.487-9.975-0.783l-48.113-66.156
			l15.326-15.326c2.475-2.475,6.454-2.579,9.055-0.238L210.57,316.596z"/>
	</g>
	<g>
		<path style="fill:#D18F5D;" d="M210.57,316.596l27.456,27.456c2.859,2.859,7.596,2.487,9.975-0.783l48.113-66.156l-15.326-15.326
			c-2.475-2.475-6.454-2.579-9.055-0.238L210.57,316.596z"/>
	</g>
	<g>
		<polygon style="fill:#914F38;" points="219.611,339.216 210.57,342.918 201.53,339.216 197.41,421.14 210.57,421.14 
			223.731,421.14 		"/>
	</g>
	<g>
		<g>
			<path style="fill:#D18F5D;" d="M158.697,395.56h-45.662c-5.451,0-9.87,4.42-9.87,9.87v15.71h65.403v-15.71
				C168.568,399.979,164.149,395.56,158.697,395.56z"/>
		</g>
		<g>
			<path style="fill:#D18F5D;" d="M307.925,395.56h-45.661c-5.451,0-9.87,4.42-9.87,9.87v15.71h65.402v-15.71
				C317.795,399.979,313.376,395.56,307.925,395.56z"/>
		</g>
	</g>
	<g>
		<path style="fill:#545465;" d="M276.373,105.285c2.742,8.089,13.161,73.124,13.161,73.124l13.161-7.467v-65.657H276.373z"/>
	</g>
	<g>
		<ellipse style="fill:#914F38;" cx="210.57" cy="78.964" rx="85.544" ry="19.741"/>
	</g>
	<g>
		<path style="fill:#FFEFE4;" d="M336.096,59.223c-24.044-12.474-75.126,19.741-125.601,19.741S109.099,46.749,85.055,59.223
			c-32.169,16.689-29.382,55.04-17.918,73.739c1.12,2.252,2.772,4.305,4.858,6.232c0.043,0.042,0.083,0.1,0.126,0.141
			c0.023,0.022,0.045,0.028,0.068,0.049c7.68,6.958,28.486,12.168,46.409,18.273c-0.079-1.867-0.152-3.732-0.152-5.569
			c0-15.132,3.492-27.459,9.546-37.463c21.339-5.772,50.442-9.34,82.579-9.34s61.239,3.568,82.579,9.34
			c6.053,10.004,9.546,22.331,9.546,37.463c0,1.837-0.073,3.702-0.152,5.569c17.43-5.938,37.842-11.028,45.634-17.703
			c0.285-0.228,0.566-0.346,0.853-0.619c0.38-0.362,0.734-0.832,1.104-1.234c0.399-0.413,0.772-0.835,1.129-1.261
			c0.267-0.328,0.535-0.645,0.796-0.992c0.31-0.415,0.59-0.841,0.861-1.27C365.258,116.587,369.25,76.423,336.096,59.223z"/>
	</g>
	<g>
		<ellipse style="fill:#FFD267;" cx="210.57" cy="36.192" rx="13.161" ry="16.451"/>
	</g>
	<g>
		<ellipse style="fill:#FFD267;" cx="286.244" cy="348.757" rx="16.451" ry="19.741"/>
	</g>
</g>
<g>
</g>
<g>
</g>
<g>
</g>
<g>
</g>
<g>
</g>
<g>
</g>
<g>
</g>
<g>
</g>
<g>
</g>
<g>
</g>
<g>
</g>
<g>
</g>
<g>
</g>
<g>
</g>
<g>
</g>
</svg>
