<?xml version="1.0" encoding="iso-8859-1"?>
<!-- Generator: Adobe Illustrator 19.1.0, SVG Export Plug-In . SVG Version: 6.00 Build 0)  -->
<svg version="1.1" id="Capa_1" xmlns="http://www.w3.org/2000/svg" xmlns:xlink="http://www.w3.org/1999/xlink" x="0px" y="0px"
	 viewBox="0 0 421.141 421.141" style="enable-background:new 0 0 421.141 421.141;" xml:space="preserve">
<g>
	<g>
		<path style="fill:#FFE1B2;" d="M121.521,138.187c-9.864-2.468-16.326,2.805-16.326,13.161c0,13.709,13.265,47.296,27.21,26.321
			S121.521,138.187,121.521,138.187z"/>
	</g>
	<g>
		<path style="fill:#FFE1B2;" d="M297.944,138.187c10.767-2.468,17.821,2.805,17.821,13.161c0,13.709-14.479,47.296-29.701,26.321
			S297.944,138.187,297.944,138.187z"/>
	</g>
	<g>
		<path style="fill:#FFD7A3;" d="M138.187,261.405c14.716-9.475,13.07-37.675,13.07-44.255h118.446c0,6.58-1.825,34.78,12.89,44.255
			l-72.113,80.771L138.187,261.405z"/>
	</g>
	<g>
		<path style="fill:#FDC88E;" d="M256.542,289.534l26.051-28.129c-14.716-9.474-12.89-37.675-12.89-44.255H151.257
			C159.755,241.583,215.964,283.502,256.542,289.534z"/>
	</g>
	<g>
		<path style="fill:#FFE1B2;" d="M302.605,131.606c0,52.696-30.343,118.446-92.124,118.446s-92.124-65.75-92.124-118.446
			s41.246-72.384,92.124-72.384S302.605,78.91,302.605,131.606z"/>
	</g>
	<g>
		<path style="fill:#DEC5A9;" d="M300.536,112.352c-5.308-6.759-11.001-13.704-11.001-13.704v6.58
			c1.645,59.634-19.741,85.544-19.741,85.544l-27.249,3.027c-21.251,2.361-42.697,2.361-63.948,0l-27.249-3.027
			c0,0-21.386-25.91-19.741-85.544v-6.58c0,0-5.694,6.944-11.001,13.704c-1.383,5.869-2.159,12.25-2.159,19.254
			c0,52.696,30.343,118.446,92.124,118.446s92.124-65.75,92.124-118.446C302.695,124.602,301.919,118.221,300.536,112.352z
			 M230.311,232.723c-7.268,0-13.161-5.892-13.161-13.161H203.99c0,7.268-5.892,13.161-13.161,13.161s-13.161-5.892-13.161-13.161
			c0-7.269,5.892-13.161,13.161-13.161h39.482c7.268,0,13.161,5.892,13.161,13.161C243.472,226.83,237.58,232.723,230.311,232.723z"
			/>
	</g>
	<g>
		<path style="fill:#7E5449;" d="M138.097,110.632c-2.742,7.129-6.58,39.482-6.58,39.482l-13.161-6.58l-3.701-43.595
			L138.097,110.632z"/>
	</g>
	<g>
		<path style="fill:#7E5449;" d="M282.864,110.632c2.742,7.129,6.58,39.482,6.58,39.482l13.161-6.58l3.701-43.595L282.864,110.632z"
			/>
	</g>
	<g>
		<path style="fill:#FFBE1E;" d="M289.444,36.996V26.332c0-3.64-2.951-6.591-6.591-6.591h-6.559c-1.687,0-3.189,0.682-4.354,1.724
			c-13.296-8.392-29.641-12.953-48.299-14.35V6.591c0-3.64-2.951-6.591-6.591-6.591h-13.139c-3.64,0-6.591,2.951-6.591,6.591v0.524
			c-18.776,1.41-35.062,6.028-48.272,14.368c-1.169-1.055-2.683-1.742-4.382-1.742h-6.559c-3.64,0-6.591,2.951-6.591,6.591v10.676
			c-12.659,15.711-19.741,38.002-19.741,68.278v13.161h197.41v-13.161C309.185,74.828,302.025,52.613,289.444,36.996z"/>
	</g>
	<g>
		<path style="fill:#545465;" d="M112.312,92.124H308.65c-0.536-7.083-1.514-13.653-2.904-19.741H115.219
			C113.827,78.48,112.847,85.051,112.312,92.124z"/>
	</g>
	<g>
		<path style="fill:#FC9B28;" d="M210.48,92.124c-42.13,0-105.179,11.784-105.179,26.321h210.359
			C315.659,103.909,252.611,92.124,210.48,92.124z"/>
	</g>
	<g>
		<circle style="fill:#545465;" cx="210.57" cy="65.803" r="39.482"/>
	</g>
	<g>
		<circle style="fill:#D0D7DC;" cx="210.57" cy="65.803" r="26.321"/>
	</g>
	<g>
		<circle style="fill:#E4EBF0;" cx="210.57" cy="65.803" r="13.161"/>
	</g>
	<g>
		<path style="fill:#7C828D;" d="M361.918,421.141c10.903,0,19.741-8.838,19.741-19.741v-62.722
			c0-28.954-22.562-59.864-50.138-68.687l-41.168-13.173c-22.149,16.936-53.802,40.039-79.782,40.039s-57.633-23.103-79.782-40.039
			L89.62,269.99c-27.576,8.823-50.138,39.733-50.138,68.687V401.4c0,10.903,8.838,19.741,19.741,19.741H361.918z"/>
	</g>
	<g>
		<path style="fill:#545465;" d="M273.47,269.309c-19.747,13.967-42.983,27.546-62.9,27.546c-17.444,0-37.435-10.423-55.399-22.394
			l-3.824,1.912l46.062,144.767h26.321l52.643-151.347L273.47,269.309z"/>
	</g>
	<g>
		<path style="fill:#6E6E79;" d="M158.094,276.373l45.896,144.767h-26.321l-61.768-94.669c-2.316-2.316-2.576-5.981-0.611-8.601
			l16.317-21.756l-33.95-11.317c-3.25-1.083-5.137-4.443-4.326-7.771c3.657-15.002,17.009-53.296,58.016-53.296v0
			C151.347,236.791,153.631,264.1,158.094,276.373z"/>
	</g>
	<g>
		<path style="fill:#6E6E79;" d="M263.047,276.373l-45.896,144.767h26.321l61.768-94.669c2.316-2.316,2.576-5.981,0.611-8.601
			l-16.317-21.756l33.95-11.317c3.25-1.083,5.137-4.443,4.326-7.771c-3.657-15.002-17.009-53.296-58.016-53.296v0
			C269.793,236.791,267.51,264.1,263.047,276.373z"/>
	</g>
</g>
<g>
</g>
<g>
</g>
<g>
</g>
<g>
</g>
<g>
</g>
<g>
</g>
<g>
</g>
<g>
</g>
<g>
</g>
<g>
</g>
<g>
</g>
<g>
</g>
<g>
</g>
<g>
</g>
<g>
</g>
</svg>
