<?xml version="1.0" encoding="utf-8"?>
<!-- Icon by Freepik: http://www.flaticon.com/free-icon/image_124102#term=photo&page=1&position=56 -->
<!-- Generator: Adobe Illustrator 20.0.0, SVG Export Plug-In . SVG Version: 6.00 Build 0)  -->
<svg version="1.1" id="Layer_1" xmlns="http://www.w3.org/2000/svg" xmlns:xlink="http://www.w3.org/1999/xlink" x="0px" y="0px"
	 width="24px" height="32px" viewBox="0 0 24 32" style="enable-background:new 0 0 24 32;" xml:space="preserve">
<style type="text/css">
	.st0{fill:#BAB388;}
	.st1{fill:#E59784;}
	.st2{fill:#E1BAB5;}
	.st3{fill:#B6CCDF;}
	.st4{fill:#A9A69A;}
	.st5{fill:#E3E1D0;}
</style>
<g>
	<path class="st0" d="M13.1,13c1,0,1.8,0.8,1.8,1.8s-0.8,1.8-1.8,1.8s-1.8-0.8-1.8-1.8S12.2,13,13.1,13z"/>
	<polygon class="st1" points="20,21.7 20,26.6 14.2,26.6 11.1,21.9 16.4,17.7 	"/>
	<polygon class="st2" points="11.1,21.9 14.2,26.6 4,26.6 4,22.6 8.3,17.4 	"/>
	<path class="st3" d="M20,11.1v10.6l-3.6-4l-5.3,4.1l-2.9-4.4L4,22.6V11.1H20z M14.9,14.8c0-1-0.8-1.8-1.8-1.8s-1.8,0.8-1.8,1.8
		s0.8,1.8,1.8,1.8S14.9,15.8,14.9,14.8z"/>
	<polygon class="st4" points="23.5,7.8 17.3,7.8 17.3,1.6 	"/>
	<path class="st5" d="M23.5,7.8v22.5h-23V1.6h16.8v6.2H23.5z M20,26.6v-4.9V11.1H4v11.5v4h10.1H20z"/>
</g>
</svg>
